<?xml version="1.0" encoding="UTF-8" standalone="no"?>
<svg
   enable-background="new 0 0 527 527"
   height="20"
   viewBox="0 0 527 527"
   width="20"
   version="1.1"
   id="svg14"
   sodipodi:docname="volkswagen.svg"
   inkscape:version="1.2.2 (732a01da63, 2022-12-09)"
   xmlns:inkscape="http://www.inkscape.org/namespaces/inkscape"
   xmlns:sodipodi="http://sodipodi.sourceforge.net/DTD/sodipodi-0.dtd"
   xmlns="http://www.w3.org/2000/svg"
   xmlns:svg="http://www.w3.org/2000/svg">
  <defs
     id="defs18" />
  <sodipodi:namedview
     id="namedview16"
     pagecolor="#505050"
     bordercolor="#eeeeee"
     borderopacity="1"
     inkscape:showpageshadow="0"
     inkscape:pageopacity="0"
     inkscape:pagecheckerboard="0"
     inkscape:deskcolor="#505050"
     showgrid="false"
     inkscape:zoom="11.8"
     inkscape:cx="-3.559322"
     inkscape:cy="10"
     inkscape:window-width="1920"
     inkscape:window-height="1009"
     inkscape:window-x="-8"
     inkscape:window-y="-8"
     inkscape:window-maximized="1"
     inkscape:current-layer="svg14" />
  <path
     d="m263.3 3.7c-143.1 0-259.8 116.7-259.8 259.8s116.7 259.8 259.8 259.8 259.8-116.7 259.8-259.8c-.1-143.1-116.8-259.8-259.8-259.8zm0 489.6c-126.6 0-229.8-103.2-229.8-229.8s103.2-229.8 229.8-229.8 229.8 103.2 229.8 229.8-103.3 229.8-229.8 229.8z"
     id="path2"
     style="fill:#999999" />
  <path
     d="m188.9 439.1c-68.3-29.1-116.3-96.9-116.3-175.6 0-20 3.1-39.3 8.9-57.5z"
     id="path4"
     style="fill:#999999" />
  <path
     d="m316.2 446.7c-16.8 4.9-34.6 7.5-53 7.5s-36.1-2.6-52.9-7.5l52.9-123.5z"
     id="path6"
     style="fill:#999999" />
  <path
     d="m445.1 206.1c5.8 18.1 8.9 37.4 8.9 57.4 0 78.7-48.1 146.5-116.3 175.5z"
     id="path8"
     style="fill:#999999" />
  <path
     d="m359.4 98.9c23.3 13.7 43.4 32.1 59.1 54l-95 201.9-32-77.1h-56.4l-32 77.1-95-201.9c15.7-21.9 35.8-40.4 59.1-54l66.6 155.5h59z"
     id="path10"
     style="fill:#999999" />
  <path
     d="m263.3 72.8c18.6 0 36.7 2.7 53.7 7.7l-53.7 129.3-53.7-129.3c17-5 35-7.7 53.7-7.7z"
     id="path12"
     style="fill:#999999" />
</svg>
