<?xml version="1.0" encoding="UTF-8" standalone="no"?>
<svg
   enable-background="new 0 0 320 320"
   height="20"
   viewBox="0 0 320 320"
   width="20"
   version="1.1"
   id="svg1855"
   sodipodi:docname="tesla.svg"
   inkscape:version="1.2.2 (732a01da63, 2022-12-09)"
   xmlns:inkscape="http://www.inkscape.org/namespaces/inkscape"
   xmlns:sodipodi="http://sodipodi.sourceforge.net/DTD/sodipodi-0.dtd"
   xmlns="http://www.w3.org/2000/svg"
   xmlns:svg="http://www.w3.org/2000/svg">
  <defs
     id="defs1859" />
  <sodipodi:namedview
     id="namedview1857"
     pagecolor="#505050"
     bordercolor="#eeeeee"
     borderopacity="1"
     inkscape:showpageshadow="0"
     inkscape:pageopacity="0"
     inkscape:pagecheckerboard="0"
     inkscape:deskcolor="#505050"
     showgrid="false"
     inkscape:zoom="11.8"
     inkscape:cx="-4.1101695"
     inkscape:cy="10"
     inkscape:window-width="1920"
     inkscape:window-height="1009"
     inkscape:window-x="-8"
     inkscape:window-y="-8"
     inkscape:window-maximized="1"
     inkscape:current-layer="svg1855" />
  <path
     d="m160 318 44.4-249.7c42.3 0 55.7 4.7 57.6 23.6 0 0 28.4-10.6 42.7-32.1-55.9-25.9-112-27.1-112-27.1l-32.8 39.9h.1l-32.8-39.9s-56.1 1.2-112 27.1c14.3 21.5 42.7 32.1 42.7 32.1 2-18.9 15.3-23.6 57.3-23.6z"
     id="path1851"
     style="fill:#999999;fill-opacity:1" />
  <path
     d="m160 21.2c45.2-.4 96.8 7 149.8 30.1 7.1-12.7 8.9-18.4 8.9-18.4-50.5-20.1-104.3-30.6-158.7-30.9-54.4.3-108.2 10.8-158.7 30.9 2.6 6.3 5.5 12.4 8.9 18.4 52.9-23.1 104.6-30.4 149.8-30.1z"
     id="path1853"
     style="fill:#999999;fill-opacity:1" />
</svg>
